<?xml version="1.0" encoding="utf-8"?>
<!-- Generator: Adobe Illustrator 16.0.0, SVG Export Plug-In . SVG Version: 6.00 Build 0)  -->
<!DOCTYPE svg PUBLIC "-//W3C//DTD SVG 1.1//EN" "http://www.w3.org/Graphics/SVG/1.1/DTD/svg11.dtd">
<svg version="1.1" id="Layer_1" xmlns="http://www.w3.org/2000/svg" xmlns:xlink="http://www.w3.org/1999/xlink" x="0px" y="0px"
	 width="3840px" height="2160px" viewBox="0 0 3840 2160" enable-background="new 0 0 3840 2160" xml:space="preserve">
<g>
	<polygon fill="none" points="2307.884,431.156 2307.884,693.451 2569.646,693.451 2569.646,430.884 	"/>
	<path fill="#111111" d="M2569.646,430.884v262.567h63.06v-293.01c0-8.698-3.261-16.311-9.24-22.289
		c-5.437-5.438-13.592-9.242-22.291-9.242h-293.291v62.246L2569.646,430.884z"/>
</g>
<g>
	<polygon fill="none" points="1532.117,1728.849 1532.117,1466.551 1270.357,1466.551 1270.357,1729.12 	"/>
	<path fill="#111111" d="M1270.357,1729.12v-262.569h-63.063v293.012c0,8.698,3.262,16.312,9.242,22.289
		c5.436,5.438,13.591,9.241,22.288,9.241h293.293v-62.244L1270.357,1729.12z"/>
</g>
<g>
	<polygon fill="none" points="2569.646,1466.551 2307.884,1466.551 2307.884,1728.85 2569.646,1728.578 	"/>
	<path fill="#111111" d="M2569.646,1728.578l-261.763,0.271v62.244h292.747c17.939,0.544,32.074-13.591,32.074-30.986v-0.526
		v-293.03h-63.059V1728.578z"/>
</g>
<g>
	<polygon fill="none" points="1270.357,693.451 1532.117,693.451 1532.117,431.155 1270.357,431.427 	"/>
	<path fill="#111111" d="M1270.357,431.427l261.76-0.272v-62.246H1239.37c-0.188-0.006-0.372,0-0.558-0.003l0.014-0.015
		c-0.154,0-0.307,0.011-0.46,0.013c-17.459,0.004-31.071,13.922-31.071,30.992l0.014-0.015c-0.002,0.181-0.014,0.359-0.014,0.541
		v293.028h63.063V431.427z"/>
	<line fill="#111111" x1="1532.117" y1="368.909" x2="1532.117" y2="431.155"/>
</g>
</svg>
