<?xml version="1.0" encoding="utf-8"?>
<!-- Generator: Adobe Illustrator 16.0.0, SVG Export Plug-In . SVG Version: 6.00 Build 0)  -->
<!DOCTYPE svg PUBLIC "-//W3C//DTD SVG 1.1//EN" "http://www.w3.org/Graphics/SVG/1.1/DTD/svg11.dtd">
<svg version="1.1" id="Layer_1" xmlns="http://www.w3.org/2000/svg" xmlns:xlink="http://www.w3.org/1999/xlink" x="0px" y="0px"
	 width="3840px" height="2160px" viewBox="0 0 3840 2160" enable-background="new 0 0 3840 2160" xml:space="preserve">
<path fill="#111111" d="M1847.7,378.151c-5.438-5.437-13.593-9.242-22.291-9.242H1239.37c-0.188-0.006-0.372,0-0.558-0.003
	l0.014-0.014c-0.154,0-0.306,0.01-0.46,0.012c-17.459,0.004-31.071,13.922-31.071,30.992l0.014-0.014
	c-0.003,0.181-0.014,0.359-0.014,0.541v586.04c0,8.698,3.262,16.31,9.242,22.289c5.436,5.437,13.591,9.241,22.289,9.241h586.04
	c17.938,0.544,32.073-13.591,32.073-30.987v-0.526V400.44C1856.939,391.742,1853.679,384.13,1847.7,378.151z M1793.879,955.477
	l-523.521,0.543V431.427l523.521-0.544V955.477z"/>
<path fill="#111111" d="M2623.466,378.152c-5.437-5.437-13.592-9.242-22.291-9.242h-586.039c-0.187-0.006-0.37,0-0.556-0.003
	l0.014-0.014c-0.154,0-0.307,0.01-0.46,0.012c-17.459,0.003-31.071,13.922-31.071,30.991l0.014-0.014
	c-0.003,0.181-0.014,0.36-0.014,0.542v586.04c0,8.698,3.262,16.311,9.242,22.289c5.435,5.436,13.59,9.241,22.287,9.241h586.04
	c17.939,0.544,32.074-13.591,32.074-30.987v-0.527V400.441C2632.706,391.743,2629.445,384.131,2623.466,378.152z M2569.646,955.479
	l-523.522,0.543V431.428l523.522-0.544V955.479z"/>
<path fill="#111111" d="M1847.7,1151.251c-5.438-5.436-13.593-9.242-22.291-9.242H1239.37c-0.187-0.006-0.371,0-0.557-0.003
	l0.013-0.013c-0.144,0-0.285,0.009-0.428,0.011c-17.475-0.013-31.104,13.912-31.104,30.992l0.014-0.014
	c-0.003,0.181-0.014,0.359-0.014,0.541v586.04c0,8.698,3.262,16.311,9.242,22.289c5.436,5.437,13.591,9.241,22.289,9.241h586.04
	c17.938,0.544,32.073-13.591,32.073-30.987v-0.526v-586.04C1856.939,1164.842,1853.679,1157.23,1847.7,1151.251z M1793.879,1728.577
	l-523.521,0.543v-524.593l523.521-0.544V1728.577z"/>
<path fill="#111111" d="M2623.466,1151.252c-5.437-5.436-13.592-9.242-22.291-9.242h-586.039c-0.187-0.006-0.37,0-0.556-0.003
	l0.014-0.013c-0.144,0-0.285,0.009-0.428,0.011c-17.475-0.014-31.104,13.911-31.104,30.992l0.014-0.014
	c-0.003,0.182-0.014,0.36-0.014,0.542v586.039c0,8.698,3.262,16.311,9.242,22.289c5.435,5.437,13.59,9.241,22.287,9.241h586.04
	c17.939,0.544,32.074-13.591,32.074-30.987v-0.526v-586.04C2632.706,1164.843,2629.445,1157.23,2623.466,1151.252z
	 M2569.646,1728.578l-523.522,0.543v-524.593l523.522-0.544V1728.578z"/>
</svg>
